<svg xmlns="http://www.w3.org/2000/svg" width="1000" height="740" viewBox="0 0 1000 740">
<rect width="100%" height="100%" fill="#ffffff"/>
<text x="40" y="54" font-family="Helvetica,Arial,sans-serif" font-size="27" font-weight="bold" fill="#22252a">CLumo wiring</text>
<text x="40" y="79" font-family="Helvetica,Arial,sans-serif" font-size="13.5" fill="#6b7076">Every link is a JST XH 2.54 mm lead.</text>
<path d="M 544.5,360.2 C 654.5,360.2 779.0,517.9 779.0,382.9" fill="none" stroke="#00000026" stroke-width="8.5" stroke-linecap="round"/>
<path d="M 544.5,360.2 C 654.5,360.2 779.0,517.9 779.0,382.9" fill="none" stroke="#d1332e" stroke-width="5" stroke-linecap="round"/>
<path d="M 544.5,378.4 C 620.5,378.4 814.9,470.9 814.9,382.9" fill="none" stroke="#00000026" stroke-width="8.5" stroke-linecap="round"/>
<path d="M 544.5,378.4 C 620.5,378.4 814.9,470.9 814.9,382.9" fill="none" stroke="#e8a020" stroke-width="5" stroke-linecap="round"/>
<path d="M 544.5,396.7 C 602.5,396.7 832.9,442.9 832.9,382.9" fill="none" stroke="#00000026" stroke-width="8.5" stroke-linecap="round"/>
<path d="M 544.5,396.7 C 602.5,396.7 832.9,442.9 832.9,382.9" fill="none" stroke="#3a8f3a" stroke-width="5" stroke-linecap="round"/>
<path d="M 544.5,414.9 C 588.5,414.9 850.8,424.9 850.8,382.9" fill="none" stroke="#00000026" stroke-width="8.5" stroke-linecap="round"/>
<path d="M 544.5,414.9 C 588.5,414.9 850.8,424.9 850.8,382.9" fill="none" stroke="#2f6fbf" stroke-width="5" stroke-linecap="round"/>
<path d="M 441.1,341.9 C 371.1,341.9 322.5,201.5 252.5,201.5" fill="none" stroke="#00000026" stroke-width="8.5" stroke-linecap="round"/>
<path d="M 441.1,341.9 C 371.1,341.9 322.5,201.5 252.5,201.5" fill="none" stroke="#e8a020" stroke-width="5" stroke-linecap="round"/>
<path d="M 441.1,360.2 C 371.1,360.2 322.5,421.5 252.5,421.5" fill="none" stroke="#00000026" stroke-width="8.5" stroke-linecap="round"/>
<path d="M 441.1,360.2 C 371.1,360.2 322.5,421.5 252.5,421.5" fill="none" stroke="#3a8f3a" stroke-width="5" stroke-linecap="round"/>
<path d="M 544.5,341.9 C 664.5,341.9 563.5,497.7 575.0,592.0" fill="none" stroke="#00000026" stroke-width="8.5" stroke-linecap="round"/>
<path d="M 544.5,341.9 C 664.5,341.9 563.5,497.7 575.0,592.0" fill="none" stroke="#2b2b2b" stroke-width="5" stroke-linecap="round"/>
<path d="M 575.0,592.0 C 662.3,509.7 796.9,502.9 796.9,382.9" fill="none" stroke="#00000026" stroke-width="8.5" stroke-linecap="round"/>
<path d="M 575.0,592.0 C 662.3,509.7 796.9,502.9 796.9,382.9" fill="none" stroke="#2b2b2b" stroke-width="5" stroke-linecap="round"/>
<path d="M 575.0,592.0 C 435.2,435.3 402.5,230.3 252.5,230.3" fill="none" stroke="#00000026" stroke-width="8.5" stroke-linecap="round"/>
<path d="M 575.0,592.0 C 435.2,435.3 402.5,230.3 252.5,230.3" fill="none" stroke="#2b2b2b" stroke-width="5" stroke-linecap="round"/>
<path d="M 575.0,592.0 C 437.7,531.7 372.5,450.3 252.5,450.3" fill="none" stroke="#00000026" stroke-width="8.5" stroke-linecap="round"/>
<path d="M 575.0,592.0 C 437.7,531.7 372.5,450.3 252.5,450.3" fill="none" stroke="#2b2b2b" stroke-width="5" stroke-linecap="round"/>
<g transform="translate(430,300) scale(7.18110)"><rect x="0" y="0" width="17.5" height="21.0" rx="1.2" fill="#1d2024"/><rect x="4.10" y="-0.90" width="9.30" height="3.40" rx="0.70" fill="#c8ccd1"/><rect x="5.20" y="-0.10" width="7.10" height="1.30" rx="0.55" fill="#8e949b"/><rect x="5.60" y="3.90" width="6.30" height="6.50" rx="0.50" fill="#b6bbc1"/><rect x="5.60" y="3.90" width="6.30" height="6.50" rx="0.50" fill="none" stroke="#8f959c" stroke-width="0.12"/><text x="8.75" y="13.20" font-family="Helvetica,Arial,sans-serif" font-size="1.05" text-anchor="middle" font-weight="bold" fill="#c9ced4">XIAO ESP32-C3</text><rect x="0.40" y="2.60" width="2.30" height="1.40" rx="0.70" fill="#d3a13f"/><circle cx="1.55" cy="3.30" r="0.42" fill="#1d2024"/><text x="3.00" y="3.68" font-family="Helvetica,Arial,sans-serif" font-size="1.05" text-anchor="start" font-weight="normal" fill="#b9c0c7">D0</text><rect x="0.40" y="5.14" width="2.30" height="1.40" rx="0.70" fill="#d3a13f"/><circle cx="1.55" cy="5.84" r="0.42" fill="#1d2024"/><text x="3.00" y="6.22" font-family="Helvetica,Arial,sans-serif" font-size="1.05" text-anchor="start" font-weight="normal" fill="#b9c0c7">D1</text><rect x="0.40" y="7.68" width="2.30" height="1.40" rx="0.70" fill="#d3a13f"/><circle cx="1.55" cy="8.38" r="0.42" fill="#1d2024"/><text x="3.00" y="8.76" font-family="Helvetica,Arial,sans-serif" font-size="1.05" text-anchor="start" font-weight="normal" fill="#b9c0c7">D2</text><rect x="0.40" y="10.22" width="2.30" height="1.40" rx="0.70" fill="#d3a13f"/><circle cx="1.55" cy="10.92" r="0.42" fill="#1d2024"/><text x="3.00" y="11.30" font-family="Helvetica,Arial,sans-serif" font-size="1.05" text-anchor="start" font-weight="normal" fill="#b9c0c7">D3</text><rect x="0.40" y="12.76" width="2.30" height="1.40" rx="0.70" fill="#d3a13f"/><circle cx="1.55" cy="13.46" r="0.42" fill="#1d2024"/><text x="3.00" y="13.84" font-family="Helvetica,Arial,sans-serif" font-size="1.05" text-anchor="start" font-weight="normal" fill="#b9c0c7">D4</text><rect x="0.40" y="15.30" width="2.30" height="1.40" rx="0.70" fill="#d3a13f"/><circle cx="1.55" cy="16.00" r="0.42" fill="#1d2024"/><text x="3.00" y="16.38" font-family="Helvetica,Arial,sans-serif" font-size="1.05" text-anchor="start" font-weight="normal" fill="#b9c0c7">D5</text><rect x="0.40" y="17.84" width="2.30" height="1.40" rx="0.70" fill="#d3a13f"/><circle cx="1.55" cy="18.54" r="0.42" fill="#1d2024"/><text x="3.00" y="18.92" font-family="Helvetica,Arial,sans-serif" font-size="1.05" text-anchor="start" font-weight="normal" fill="#b9c0c7">D6</text><rect x="14.80" y="2.60" width="2.30" height="1.40" rx="0.70" fill="#d3a13f"/><circle cx="15.95" cy="3.30" r="0.42" fill="#1d2024"/><text x="14.50" y="3.68" font-family="Helvetica,Arial,sans-serif" font-size="1.05" text-anchor="end" font-weight="normal" fill="#b9c0c7">5V</text><rect x="14.80" y="5.14" width="2.30" height="1.40" rx="0.70" fill="#d3a13f"/><circle cx="15.95" cy="5.84" r="0.42" fill="#1d2024"/><text x="14.50" y="6.22" font-family="Helvetica,Arial,sans-serif" font-size="1.05" text-anchor="end" font-weight="normal" fill="#b9c0c7">GND</text><rect x="14.80" y="7.68" width="2.30" height="1.40" rx="0.70" fill="#d3a13f"/><circle cx="15.95" cy="8.38" r="0.42" fill="#1d2024"/><text x="14.50" y="8.76" font-family="Helvetica,Arial,sans-serif" font-size="1.05" text-anchor="end" font-weight="normal" fill="#b9c0c7">3V3</text><rect x="14.80" y="10.22" width="2.30" height="1.40" rx="0.70" fill="#d3a13f"/><circle cx="15.95" cy="10.92" r="0.42" fill="#1d2024"/><text x="14.50" y="11.30" font-family="Helvetica,Arial,sans-serif" font-size="1.05" text-anchor="end" font-weight="normal" fill="#b9c0c7">D10</text><rect x="14.80" y="12.76" width="2.30" height="1.40" rx="0.70" fill="#d3a13f"/><circle cx="15.95" cy="13.46" r="0.42" fill="#1d2024"/><text x="14.50" y="13.84" font-family="Helvetica,Arial,sans-serif" font-size="1.05" text-anchor="end" font-weight="normal" fill="#b9c0c7">D9</text><rect x="14.80" y="15.30" width="2.30" height="1.40" rx="0.70" fill="#d3a13f"/><circle cx="15.95" cy="16.00" r="0.42" fill="#1d2024"/><text x="14.50" y="16.38" font-family="Helvetica,Arial,sans-serif" font-size="1.05" text-anchor="end" font-weight="normal" fill="#b9c0c7">D8</text><rect x="14.80" y="17.84" width="2.30" height="1.40" rx="0.70" fill="#d3a13f"/><circle cx="15.95" cy="18.54" r="0.42" fill="#1d2024"/><text x="14.50" y="18.92" font-family="Helvetica,Arial,sans-serif" font-size="1.05" text-anchor="end" font-weight="normal" fill="#b9c0c7">D7</text></g>
<g transform="translate(700,110) scale(7.18110)"><rect x="0" y="0" width="32.0" height="38.0" rx="1.2" fill="#2f5fa8"/><rect x="1" y="1" width="30.0" height="30.0" rx="0.8" fill="#16181b"/><circle cx="2.88" cy="2.88" r="1.42" fill="#dcdcdc"/><circle cx="6.62" cy="2.88" r="1.42" fill="#dcdcdc"/><circle cx="10.38" cy="2.88" r="1.42" fill="#dcdcdc"/><circle cx="14.12" cy="2.88" r="1.42" fill="#dcdcdc"/><circle cx="17.88" cy="2.88" r="1.42" fill="#dcdcdc"/><circle cx="21.62" cy="2.88" r="1.42" fill="#dcdcdc"/><circle cx="25.38" cy="2.88" r="1.42" fill="#dcdcdc"/><circle cx="29.12" cy="2.88" r="1.42" fill="#dcdcdc"/><circle cx="2.88" cy="6.62" r="1.42" fill="#dcdcdc"/><circle cx="6.62" cy="6.62" r="1.42" fill="#dcdcdc"/><circle cx="10.38" cy="6.62" r="1.42" fill="#dcdcdc"/><circle cx="14.12" cy="6.62" r="1.42" fill="#dcdcdc"/><circle cx="17.88" cy="6.62" r="1.42" fill="#dcdcdc"/><circle cx="21.62" cy="6.62" r="1.42" fill="#dcdcdc"/><circle cx="25.38" cy="6.62" r="1.42" fill="#dcdcdc"/><circle cx="29.12" cy="6.62" r="1.42" fill="#dcdcdc"/><circle cx="2.88" cy="10.38" r="1.42" fill="#dcdcdc"/><circle cx="6.62" cy="10.38" r="1.42" fill="#dcdcdc"/><circle cx="10.38" cy="10.38" r="1.42" fill="#dcdcdc"/><circle cx="14.12" cy="10.38" r="1.42" fill="#dcdcdc"/><circle cx="17.88" cy="10.38" r="1.42" fill="#dcdcdc"/><circle cx="21.62" cy="10.38" r="1.42" fill="#dcdcdc"/><circle cx="25.38" cy="10.38" r="1.42" fill="#dcdcdc"/><circle cx="29.12" cy="10.38" r="1.42" fill="#dcdcdc"/><circle cx="2.88" cy="14.12" r="1.42" fill="#dcdcdc"/><circle cx="6.62" cy="14.12" r="1.42" fill="#dcdcdc"/><circle cx="10.38" cy="14.12" r="1.42" fill="#dcdcdc"/><circle cx="14.12" cy="14.12" r="1.42" fill="#dcdcdc"/><circle cx="17.88" cy="14.12" r="1.42" fill="#dcdcdc"/><circle cx="21.62" cy="14.12" r="1.42" fill="#dcdcdc"/><circle cx="25.38" cy="14.12" r="1.42" fill="#dcdcdc"/><circle cx="29.12" cy="14.12" r="1.42" fill="#dcdcdc"/><circle cx="2.88" cy="17.88" r="1.42" fill="#dcdcdc"/><circle cx="6.62" cy="17.88" r="1.42" fill="#dcdcdc"/><circle cx="10.38" cy="17.88" r="1.42" fill="#dcdcdc"/><circle cx="14.12" cy="17.88" r="1.42" fill="#dcdcdc"/><circle cx="17.88" cy="17.88" r="1.42" fill="#dcdcdc"/><circle cx="21.62" cy="17.88" r="1.42" fill="#dcdcdc"/><circle cx="25.38" cy="17.88" r="1.42" fill="#dcdcdc"/><circle cx="29.12" cy="17.88" r="1.42" fill="#dcdcdc"/><circle cx="2.88" cy="21.62" r="1.42" fill="#dcdcdc"/><circle cx="6.62" cy="21.62" r="1.42" fill="#dcdcdc"/><circle cx="10.38" cy="21.62" r="1.42" fill="#dcdcdc"/><circle cx="14.12" cy="21.62" r="1.42" fill="#dcdcdc"/><circle cx="17.88" cy="21.62" r="1.42" fill="#dcdcdc"/><circle cx="21.62" cy="21.62" r="1.42" fill="#dcdcdc"/><circle cx="25.38" cy="21.62" r="1.42" fill="#dcdcdc"/><circle cx="29.12" cy="21.62" r="1.42" fill="#dcdcdc"/><circle cx="2.88" cy="25.38" r="1.42" fill="#dcdcdc"/><circle cx="6.62" cy="25.38" r="1.42" fill="#dcdcdc"/><circle cx="10.38" cy="25.38" r="1.42" fill="#dcdcdc"/><circle cx="14.12" cy="25.38" r="1.42" fill="#dcdcdc"/><circle cx="17.88" cy="25.38" r="1.42" fill="#dcdcdc"/><circle cx="21.62" cy="25.38" r="1.42" fill="#dcdcdc"/><circle cx="25.38" cy="25.38" r="1.42" fill="#dcdcdc"/><circle cx="29.12" cy="25.38" r="1.42" fill="#dcdcdc"/><circle cx="2.88" cy="29.12" r="1.42" fill="#dcdcdc"/><circle cx="6.62" cy="29.12" r="1.42" fill="#dcdcdc"/><circle cx="10.38" cy="29.12" r="1.42" fill="#dcdcdc"/><circle cx="14.12" cy="29.12" r="1.42" fill="#dcdcdc"/><circle cx="17.88" cy="29.12" r="1.42" fill="#dcdcdc"/><circle cx="21.62" cy="29.12" r="1.42" fill="#dcdcdc"/><circle cx="25.38" cy="29.12" r="1.42" fill="#dcdcdc"/><circle cx="29.12" cy="29.12" r="1.42" fill="#dcdcdc"/><rect x="9.25" y="33.60" width="13.50" height="4.40" rx="0.40" fill="#f4f3ee" stroke="#c2c0b6" stroke-width="0.18"/><rect x="1.6" y="33.60" width="4.6" height="4.4" rx="0.90" fill="#2f9e56"/><text x="3.90" y="36.55" font-family="Helvetica,Arial,sans-serif" font-size="2.1" text-anchor="middle" font-weight="bold" fill="#ffffff">IN</text><rect x="10.45" y="34.70" width="1.10" height="2.20" rx="0.25" fill="#9a9a92"/><text x="11.00" y="32.90" font-family="Helvetica,Arial,sans-serif" font-size="0.95" text-anchor="middle" font-weight="normal" fill="#dbe6f7">VCC</text><rect x="12.95" y="34.70" width="1.10" height="2.20" rx="0.25" fill="#9a9a92"/><text x="13.50" y="32.90" font-family="Helvetica,Arial,sans-serif" font-size="0.95" text-anchor="middle" font-weight="normal" fill="#dbe6f7">GND</text><rect x="15.45" y="34.70" width="1.10" height="2.20" rx="0.25" fill="#9a9a92"/><text x="16.00" y="32.90" font-family="Helvetica,Arial,sans-serif" font-size="0.95" text-anchor="middle" font-weight="normal" fill="#dbe6f7">DIN</text><rect x="17.95" y="34.70" width="1.10" height="2.20" rx="0.25" fill="#9a9a92"/><text x="18.50" y="32.90" font-family="Helvetica,Arial,sans-serif" font-size="0.95" text-anchor="middle" font-weight="normal" fill="#dbe6f7">CS</text><rect x="20.45" y="34.70" width="1.10" height="2.20" rx="0.25" fill="#9a9a92"/><text x="21.00" y="32.90" font-family="Helvetica,Arial,sans-serif" font-size="0.95" text-anchor="middle" font-weight="normal" fill="#dbe6f7">CLK</text></g>
<g transform="translate(190,180) scale(7.18110)"><rect x="0.70" y="2.55" width="1.60" height="0.90" rx="0.25" fill="#c8ccd1"/><rect x="7.70" y="2.55" width="1.60" height="0.90" rx="0.25" fill="#c8ccd1"/><rect x="0.70" y="6.55" width="1.60" height="0.90" rx="0.25" fill="#c8ccd1"/><rect x="7.70" y="6.55" width="1.60" height="0.90" rx="0.25" fill="#c8ccd1"/><rect x="2.0" y="2.0" width="6.0" height="6.0" rx="0.60" fill="#25282d"/><rect x="2.50" y="2.50" width="5.00" height="5.00" rx="0.40" fill="none" stroke="#3a3e45" stroke-width="0.25"/><circle cx="5.0" cy="5.0" r="1.85" fill="#e8907e"/><circle cx="5.0" cy="5.0" r="1.85" fill="none" stroke="#00000055" stroke-width="0.20"/></g>
<g transform="translate(190,400) scale(7.18110)"><rect x="0.70" y="2.55" width="1.60" height="0.90" rx="0.25" fill="#c8ccd1"/><rect x="7.70" y="2.55" width="1.60" height="0.90" rx="0.25" fill="#c8ccd1"/><rect x="0.70" y="6.55" width="1.60" height="0.90" rx="0.25" fill="#c8ccd1"/><rect x="7.70" y="6.55" width="1.60" height="0.90" rx="0.25" fill="#c8ccd1"/><rect x="2.0" y="2.0" width="6.0" height="6.0" rx="0.60" fill="#25282d"/><rect x="2.50" y="2.50" width="5.00" height="5.00" rx="0.40" fill="none" stroke="#3a3e45" stroke-width="0.25"/><circle cx="5.0" cy="5.0" r="1.85" fill="#f0ece1"/><circle cx="5.0" cy="5.0" r="1.85" fill="none" stroke="#00000055" stroke-width="0.20"/></g>
<circle cx="575" cy="592" r="7.5" fill="#2b2b2b"/>
<circle cx="573" cy="590" r="2.4" fill="#ffffff" opacity="0.30"/>
<text x="575.0" y="619.0" text-anchor="middle" font-family="Helvetica,Arial,sans-serif" font-size="12.5" font-weight="normal" fill="#ffffff" stroke="#ffffff" stroke-width="5" stroke-linejoin="round">GND splice (3-way)</text>
<text x="575.0" y="619.0" text-anchor="middle" font-family="Helvetica,Arial,sans-serif" font-size="12.5" font-weight="normal" fill="#6b7076">GND splice (3-way)</text>
<text x="492.8" y="474.8" text-anchor="middle" font-family="Helvetica,Arial,sans-serif" font-size="14.5" font-weight="600" fill="#ffffff" stroke="#ffffff" stroke-width="5" stroke-linejoin="round">Seeed XIAO ESP32-C3</text>
<text x="492.8" y="474.8" text-anchor="middle" font-family="Helvetica,Arial,sans-serif" font-size="14.5" font-weight="600" fill="#41464c">Seeed XIAO ESP32-C3</text>
<text x="814.9" y="96.0" text-anchor="middle" font-family="Helvetica,Arial,sans-serif" font-size="14.5" font-weight="600" fill="#ffffff" stroke="#ffffff" stroke-width="5" stroke-linejoin="round">MAX7219 8x8 LED matrix</text>
<text x="814.9" y="96.0" text-anchor="middle" font-family="Helvetica,Arial,sans-serif" font-size="14.5" font-weight="600" fill="#41464c">MAX7219 8x8 LED matrix</text>
<text x="172.0" y="206.9" text-anchor="end" font-family="Helvetica,Arial,sans-serif" font-size="14.5" font-weight="600" fill="#ffffff" stroke="#ffffff" stroke-width="5" stroke-linejoin="round">Main button</text>
<text x="172.0" y="206.9" text-anchor="end" font-family="Helvetica,Arial,sans-serif" font-size="14.5" font-weight="600" fill="#41464c">Main button</text>
<text x="172.0" y="225.9" text-anchor="end" font-family="Helvetica,Arial,sans-serif" font-size="12.5" font-weight="normal" fill="#ffffff" stroke="#ffffff" stroke-width="5" stroke-linejoin="round">D1 / GPIO3</text>
<text x="172.0" y="225.9" text-anchor="end" font-family="Helvetica,Arial,sans-serif" font-size="12.5" font-weight="normal" fill="#7c8288">D1 / GPIO3</text>
<text x="172.0" y="426.9" text-anchor="end" font-family="Helvetica,Arial,sans-serif" font-size="14.5" font-weight="600" fill="#ffffff" stroke="#ffffff" stroke-width="5" stroke-linejoin="round">Sub button</text>
<text x="172.0" y="426.9" text-anchor="end" font-family="Helvetica,Arial,sans-serif" font-size="14.5" font-weight="600" fill="#41464c">Sub button</text>
<text x="172.0" y="445.9" text-anchor="end" font-family="Helvetica,Arial,sans-serif" font-size="12.5" font-weight="normal" fill="#ffffff" stroke="#ffffff" stroke-width="5" stroke-linejoin="round">D2 / GPIO4</text>
<text x="172.0" y="445.9" text-anchor="end" font-family="Helvetica,Arial,sans-serif" font-size="12.5" font-weight="normal" fill="#7c8288">D2 / GPIO4</text>
<rect x="332.4" y="260.2" width="28.8" height="23" rx="5" fill="#ffffff" stroke="#e8a020" stroke-width="1.4"/>
<text x="346.8" y="276.2" text-anchor="middle" font-family="Helvetica,Arial,sans-serif" font-size="12.5" fill="#22252a">D1</text>
<rect x="332.4" y="379.4" width="28.8" height="23" rx="5" fill="#ffffff" stroke="#3a8f3a" stroke-width="1.4"/>
<text x="346.8" y="395.4" text-anchor="middle" font-family="Helvetica,Arial,sans-serif" font-size="12.5" fill="#22252a">D2</text>
<rect x="62" y="560" width="248" height="138" rx="8" fill="#f7f8f9" stroke="#dcdfe3" stroke-width="1.2"/>
<text x="80" y="581" font-family="Helvetica,Arial,sans-serif" font-size="12.5" font-weight="bold" fill="#41464c">XIAO ESP32-C3</text>
<text x="212" y="581" font-family="Helvetica,Arial,sans-serif" font-size="12.5" font-weight="bold" fill="#41464c">MAX7219</text>
<rect x="80" y="594" width="10" height="10" rx="2.5" fill="#d1332e"/>
<text x="98" y="602" font-family="Helvetica,Arial,sans-serif" font-size="13" fill="#22252a">3V3</text>
<text x="184" y="602" font-family="Helvetica,Arial,sans-serif" font-size="13" fill="#9aa0a6">-&gt;</text>
<text x="212" y="602" font-family="Helvetica,Arial,sans-serif" font-size="13" fill="#22252a">VCC</text>
<rect x="80" y="615" width="10" height="10" rx="2.5" fill="#2b2b2b"/>
<text x="98" y="623" font-family="Helvetica,Arial,sans-serif" font-size="13" fill="#22252a">GND</text>
<text x="184" y="623" font-family="Helvetica,Arial,sans-serif" font-size="13" fill="#9aa0a6">-&gt;</text>
<text x="212" y="623" font-family="Helvetica,Arial,sans-serif" font-size="13" fill="#22252a">GND</text>
<rect x="80" y="636" width="10" height="10" rx="2.5" fill="#e8a020"/>
<text x="98" y="644" font-family="Helvetica,Arial,sans-serif" font-size="13" fill="#22252a">D10</text>
<text x="184" y="644" font-family="Helvetica,Arial,sans-serif" font-size="13" fill="#9aa0a6">-&gt;</text>
<text x="212" y="644" font-family="Helvetica,Arial,sans-serif" font-size="13" fill="#22252a">DIN</text>
<rect x="80" y="657" width="10" height="10" rx="2.5" fill="#3a8f3a"/>
<text x="98" y="665" font-family="Helvetica,Arial,sans-serif" font-size="13" fill="#22252a">D9</text>
<text x="184" y="665" font-family="Helvetica,Arial,sans-serif" font-size="13" fill="#9aa0a6">-&gt;</text>
<text x="212" y="665" font-family="Helvetica,Arial,sans-serif" font-size="13" fill="#22252a">CS</text>
<rect x="80" y="678" width="10" height="10" rx="2.5" fill="#2f6fbf"/>
<text x="98" y="686" font-family="Helvetica,Arial,sans-serif" font-size="13" fill="#22252a">D8</text>
<text x="184" y="686" font-family="Helvetica,Arial,sans-serif" font-size="13" fill="#9aa0a6">-&gt;</text>
<text x="212" y="686" font-family="Helvetica,Arial,sans-serif" font-size="13" fill="#22252a">CLK</text>
</svg>